<?xml version="1.0" encoding="utf-8"?>
<!-- Generator: Adobe Illustrator 16.0.0, SVG Export Plug-In . SVG Version: 6.00 Build 0)  -->
<!DOCTYPE svg PUBLIC "-//W3C//DTD SVG 1.0//EN" "http://www.w3.org/TR/2001/REC-SVG-20010904/DTD/svg10.dtd">
<svg version="1.0" id="Layer_1" xmlns="http://www.w3.org/2000/svg" xmlns:xlink="http://www.w3.org/1999/xlink" x="0px" y="0px"
	 width="100px" height="100px" viewBox="0 0 100 100" enable-background="new 0 0 100 100" xml:space="preserve">
<path fill="#263238" d="M59.167,10c-6.896,0-12.5,5.612-12.5,12.5V65h-5.834c-6.895,0.003-12.5,5.611-12.5,12.5
	c0,6.893,5.605,12.5,12.497,12.5c6.895,0,12.503-5.607,12.503-12.5V35h5.834c6.892,0,12.5-5.605,12.5-12.5S66.059,10,59.167,10z
	 M46.667,77.5c0,3.216-2.617,5.833-5.837,5.833c-3.216,0-5.83-2.617-5.83-5.833c0-3.213,2.617-5.83,5.833-5.833h5.834V77.5z
	 M59.167,28.333h-5.834V22.5c0-3.216,2.617-5.833,5.834-5.833c3.216,0,5.833,2.617,5.833,5.833S62.383,28.333,59.167,28.333z"/>
<path fill="#FFB74D" d="M46.667,28.333H22.5c-6.895,0-12.5,5.604-12.5,12.5c0,6.896,5.605,12.5,12.5,12.5h24.167v-6.666H22.5
	c-3.216,0-5.833-2.617-5.833-5.834c0-3.216,2.617-5.833,5.833-5.833h24.167V28.333z"/>
<path fill="#FFB74D" d="M53.333,65H77.5c3.216,0,5.833-2.617,5.833-5.833c0-3.217-2.617-5.834-5.833-5.834H53.333v-6.666H77.5
	c6.893,0,12.5,5.604,12.5,12.5c0,6.892-5.607,12.5-12.5,12.5H53.333V65z"/>
</svg>
