<svg id="e5332ef1-9d51-48bf-bff4-f2779ab3dca0" data-name="Layer 1" xmlns="http://www.w3.org/2000/svg" width="865.76" height="682.89" viewBox="0 0 865.76 682.89"><g id="facc521f-885a-4f3a-8832-661bb8454bd0" data-name="freepik--background-simple--inject-366"><path d="M572.58,592.76S677.9,505.83,702.8,370.31,625.7,207.56,565.87,161.67,484.06,64.12,397.34,61s-131.58,31.8-162.87,99.44-48.1,137.09-58,204.9-5.06,121.92,50.58,148.88,81.43,15.12,107.91,46.2S482,661.77,572.58,592.76Z" fill="#7862F2"/><path d="M572.58,592.76S677.9,505.83,702.8,370.31,625.7,207.56,565.87,161.67,484.06,64.12,397.34,61s-131.58,31.8-162.87,99.44-48.1,137.09-58,204.9-5.06,121.92,50.58,148.88,81.43,15.12,107.91,46.2S482,661.77,572.58,592.76Z" fill="#fff" opacity="0.7" style="isolation:isolate"/></g><polygon points="419.37 156.68 437.03 159.88 419.37 163.08 419.37 156.68" fill="#2f2e41"/><polygon points="419.37 156.68 437.03 159.88 419.37 163.08 419.37 156.68" opacity="0.3"/><path d="M406,154.09h16.86a1.71,1.71,0,0,1,1.71,1.71V164a1.71,1.71,0,0,1-1.71,1.71H406a0,0,0,0,1,0,0V154.09A0,0,0,0,1,406,154.09Z" fill="#2f2e41"/><path d="M305.94,204c12.06-4.42,30.5-22.89,39.65-32.64a54.43,54.43,0,0,0,6.9-8.69c5.23-8.54,13.93-6.46,18.26-4.7a8.85,8.85,0,0,1,4.62,4.13c3.86,7.6-2,16.29-6.16,21.09a49.73,49.73,0,0,0-7.93,12.64,47.56,47.56,0,0,0-2.83,7.62c-5,13.82-26.53,29.85-26.53,29.85l-47.54,35.92c-28.74,19.9-43.66,13.82-43.66,13.82L183.54,330.8a5.59,5.59,0,0,1-6.5.49c-38.79-24.16-51.67-56.49-55.15-67.85a5.58,5.58,0,0,1,2.34-6.35l47-30.06a36.46,36.46,0,0,0,13.47-15.4c5.39-11.63,15-31,23.58-41.32,0,0,11-39.72,34.72-44l51.16-19.49s17.06-9.14,39.59,6.09l59.43,34.51Z" fill="#f9b499"/><path d="M290.46,147.44c3.45-2.64,6.09-4.61,9.63-7.11s7-5.06,10.62-7.5l.5-.34.53.3c8,4.5,15.94,8,23.79,12.79l-1,.1,8.1-5.56,4.1-3.27c1.37-1.08,2.75-2.16,4.14-3.21-1.22,1.25-2.47,2.47-3.72,3.68L343.35,141,335.67,147l-.45.42-.58-.32c-8.05-4.43-16-7.93-23.87-12.64l1,0c-3.63,2.37-7.32,4.64-11,6.94S294.22,145.27,290.46,147.44Z" fill="#f7a48b"/><path d="M311.26,133.64c.32-3.68.91-7.16,1.41-10.69l.78-5.27c.28-1.76.47-3.53.85-5.36a26.11,26.11,0,0,1,.47,11,33.66,33.66,0,0,1-1.25,5.34A22.47,22.47,0,0,1,311.26,133.64Z" fill="#f7a48b"/><path d="M266.79,130a19.21,19.21,0,0,1,4,7.23,18.55,18.55,0,0,1,.86,8.22,59.19,59.19,0,0,1-2.89-7.57A55,55,0,0,1,266.79,130Z" fill="#f7a48b"/><path d="M253.43,186.63a22.46,22.46,0,0,1,5.18,3,33,33,0,0,1,4.44,4,27.41,27.41,0,0,1,6.18,10.16c-1.38-1.47-2.58-3-3.87-4.43s-2.55-2.89-3.87-4.28C258.89,192.22,256.17,189.53,253.43,186.63Z" fill="#f7a48b"/><path d="M274.1,170.31a38.6,38.6,0,0,1,.07,7.75,55.28,55.28,0,0,1-1.17,7.67,37.08,37.08,0,0,1-6.21,14.17c.8-2.48,1.6-4.87,2.28-7.31s1.32-4.87,1.85-7.34C272.07,180.33,273,175.36,274.1,170.31Z" fill="#f7a48b"/><path d="M271.67,186.72a43.91,43.91,0,0,0,9.1-.72c3-.51,6-1.06,8.94-1.77,6-1.3,11.82-3,17.89-4.3-1.37.73-2.79,1.34-4.18,2s-2.87,1.18-4.32,1.72-2.94,1-4.41,1.47-3,.83-4.51,1.16a56.25,56.25,0,0,1-9.24,1.35A24.58,24.58,0,0,1,271.67,186.72Z" fill="#f7a48b"/><path d="M303.9,170.31a43.12,43.12,0,0,0,2.1,7.38,64.08,64.08,0,0,0,3.13,6.91c1.17,2.24,2.5,4.41,3.88,6.56l4.34,6.43c-1-.8-2-1.66-3-2.55s-1.86-1.86-2.68-2.89a38.86,38.86,0,0,1-4.42-6.56,33.43,33.43,0,0,1-2.83-7.41A20.13,20.13,0,0,1,303.9,170.31Z" fill="#f7a48b"/><path d="M317.35,170.31a46.24,46.24,0,0,0,3.38,4.11,39.22,39.22,0,0,0,3.72,3.58,42.1,42.1,0,0,0,4.14,3.1c1.44,1,3,1.84,4.54,2.85a18.27,18.27,0,0,1-10.06-4.33,19,19,0,0,1-3.66-4.19A13.2,13.2,0,0,1,317.35,170.31Z" fill="#f7a48b"/><path d="M270.45,191.07a76.68,76.68,0,0,0,7.48,4.18q3.82,1.88,7.75,3.47c2.63,1.08,5.29,2.05,8,3l8.16,2.79c-1.45-.07-2.89-.24-4.34-.39s-2.87-.44-4.28-.8a55.33,55.33,0,0,1-8.32-2.61,50.1,50.1,0,0,1-7.77-4A29.19,29.19,0,0,1,270.45,191.07Z" fill="#f7a48b"/><path d="M397.44,150.13H410a1.71,1.71,0,0,1,1.71,1.71v16.06a1.71,1.71,0,0,1-1.71,1.71h-12.6a0,0,0,0,1,0,0V150.13A0,0,0,0,1,397.44,150.13Z" fill="#2f2e41"/><path d="M397.44,150.13H410a1.71,1.71,0,0,1,1.71,1.71v16.06a1.71,1.71,0,0,1-1.71,1.71h-12.6a0,0,0,0,1,0,0V150.13A0,0,0,0,1,397.44,150.13Z" opacity="0.3"/><path d="M213.81,277.38a74.11,74.11,0,0,0,13.13,4.67,40.8,40.8,0,0,0,6.77,1.08,49.86,49.86,0,0,0,7-.07,19.18,19.18,0,0,1-7,1.73,24.93,24.93,0,0,1-7.26-.66,30.52,30.52,0,0,1-6.79-2.56A23.85,23.85,0,0,1,213.81,277.38Z" fill="#f7a48b"/><rect x="253.43" y="147.44" width="149.23" height="24.87" fill="#2f2e41"/><path d="M360.46,197.78a58,58,0,0,1,7.19-12.68s10-9.1,8.84-19.43c0,0-.13-8.14-9.74-8.72a18.28,18.28,0,0,0-14.63,6.35c-6.92,7.81-20.74,23-27.26,27.77" fill="#f9b499"/><path d="M370.74,158a69,69,0,0,0-7.34,6.93,26.37,26.37,0,0,0-5.27,8.15,11.9,11.9,0,0,0,.12,9.15,25.41,25.41,0,0,0,6,7.84,18.88,18.88,0,0,1-7.52-7.11,12,12,0,0,1-1.5-5.23,14,14,0,0,1,.87-5.39,23.06,23.06,0,0,1,6.09-8.57A33.44,33.44,0,0,1,370.74,158Z" fill="#f7a48b"/><path d="M253.43,201.24c4.88.78,9.77,1.43,14.68,1.87s9.81.83,14.72.94,9.82.11,14.71-.2a45.51,45.51,0,0,0,7.16-.87,20.6,20.6,0,0,0,6.44-2.85c8.27-5.15,15.61-11.81,22.71-18.58,3.56-3.4,5.84-5.64,9.21-9.23s7.93-7.57,11.3-11.18c-6,7.84-12.44,14.48-19.35,21.58-3.42,3.58-7.07,6.95-10.82,10.2a103.38,103.38,0,0,1-11.93,9,22.85,22.85,0,0,1-7.08,3,46.84,46.84,0,0,1-7.53.82,129.74,129.74,0,0,1-14.89-.1A161.84,161.84,0,0,1,253.43,201.24Z" fill="#f7a48b"/><path d="M197.87,144.18h55.56a0,0,0,0,1,0,0v31.39a0,0,0,0,1,0,0H197.87a2.56,2.56,0,0,1-2.56-2.56V146.75A2.56,2.56,0,0,1,197.87,144.18Z" fill="#7862F2"/><path d="M203.83,158h32.84a0,0,0,0,1,0,0v9.71a0,0,0,0,1,0,0H203.83a2.28,2.28,0,0,1-2.28-2.28v-5.15A2.28,2.28,0,0,1,203.83,158Z" fill="#2f2e41"/><polygon points="402.46 294.37 396.04 307.59 407.83 309.49 406.93 295.17 402.46 294.37" fill="#2f2e41"/><polygon points="402.46 294.37 406.08 287.11 406.93 295.17 402.46 294.37" fill="#7862F2"/><path d="M408.06,501.87c-1.13,1.3-2.3,2.6-3.5,3.92-15.75,17.12-37.94,35.6-37.94,35.6-27.14,20-50,14.77-50,14.77L266,579.46a8.49,8.49,0,0,1-6.72.2c-33.1-13.39-32.53-59.14-31.29-74.83a8.52,8.52,0,0,1,5.33-7.25l30.95-12.36A58.42,58.42,0,0,0,288.53,460c7.14-11,13.82-28.09,13.82-28.09,10-22.88,35.7-36.2,35.7-36.2a112,112,0,0,1,36.2-22.38C394.24,363.78,400,380,400,380h4.79a8.35,8.35,0,0,1,7.74,4.82c3.78,8.54-1.94,24.06-2.49,25.53v0a.23.23,0,0,1,0,.09c0,.11.08.19.12.3,6.4,15.65-4.88,32.57-4.88,32.57,8.1,11.9,2.86,29,2.86,29C431.87,485.22,408.06,501.87,408.06,501.87Z" fill="#f9b499"/><path d="M343.77,472.83c.57-3.32,1-6.62,1.31-9.91s.53-6.6.56-9.89a85.45,85.45,0,0,0-.37-9.86,96.72,96.72,0,0,0-1.5-9.86,37.92,37.92,0,0,1,3.14,9.62,49.17,49.17,0,0,1,.86,10.13A52.4,52.4,0,0,1,343.77,472.83Z" fill="#f7a48b"/><path d="M274.14,478.42a101.42,101.42,0,0,0,2.34,12.65,47.34,47.34,0,0,0,2,6,54.62,54.62,0,0,0,2.9,5.77,17.75,17.75,0,0,1-4.38-5,24.38,24.38,0,0,1-2.59-6.19,29.62,29.62,0,0,1-.95-6.6A22.91,22.91,0,0,1,274.14,478.42Z" fill="#f7a48b"/><path d="M310.44,515.69a36.17,36.17,0,0,0,7-4.67,72.19,72.19,0,0,0,6.2-5.67c2-2,3.88-4.07,5.81-6.14s3.75-4.26,5.71-6.38c-.62,1.3-1.36,2.53-2,3.81s-1.55,2.42-2.37,3.61a56.07,56.07,0,0,1-5.6,6.61,40.55,40.55,0,0,1-6.74,5.51A20.74,20.74,0,0,1,310.44,515.69Z" fill="#f7a48b"/><path d="M310.44,536.16c.8,3.55,1.48,6.93,2.45,10.24.43,1.67,1,3.28,1.62,4.9s1.37,3.18,2.12,4.86A14.71,14.71,0,0,1,313,552a21.31,21.31,0,0,1-2.18-5,24.25,24.25,0,0,1-.88-5.4A17.75,17.75,0,0,1,310.44,536.16Z" fill="#f7a48b"/><path d="M361.54,420.06c2.79,1.59,5.35,3.15,8,4.6,1.32.74,2.67,1.44,4,2.14s2.76,1.36,4.16,2.19a18.73,18.73,0,0,1-9.21-2.46,21.3,21.3,0,0,1-3.93-2.78A14,14,0,0,1,361.54,420.06Z" fill="#f7a48b"/><path d="M359,433.31a5.88,5.88,0,0,1,2.93.58,7.64,7.64,0,0,1,2.44,1.76,6.68,6.68,0,0,1,1.54,2.65,5.07,5.07,0,0,1,.07,3c-.61-.84-1-1.61-1.56-2.29a21.51,21.51,0,0,0-1.61-1.92C361.7,435.85,360.42,434.75,359,433.31Z" fill="#f7a48b"/><rect x="377.27" y="307.05" width="11.94" height="235.19" transform="translate(72.36 -55.51) rotate(9.15)" fill="#7862F2"/><path d="M358.66,539.79l-2.57,19.46a6.17,6.17,0,0,0,4.78,6.84h0a6.17,6.17,0,0,0,7.49-5.35l2.09-19Z" fill="#2f2e41"/><path d="M338.06,395.69s23.43-22,44.41-25a6.06,6.06,0,0,1,7,5.67c.24,5.91-4.3,16.69-27.17,34.61,0,0-6.19,14.28-24.28,25.23" fill="#f9b499"/><path d="M338.06,395.69a125.62,125.62,0,0,1,21.08-16.53,89.23,89.23,0,0,1,12-6.23l3.17-1.21,3.26-1c1.08-.36,2.23-.49,3.34-.75.57-.1,1.09-.24,1.7-.32a7.26,7.26,0,0,1,1.92,0,7,7,0,0,1,5.68,4.72,8.53,8.53,0,0,1,.28,3.72,16.72,16.72,0,0,1-.76,3.48c-1.47,4.47-4.19,8.24-7.06,11.72a125.46,125.46,0,0,1-19.78,18.23l.24-.32a46.7,46.7,0,0,1-4.85,7.62,63.87,63.87,0,0,1-5.92,6.7,69.12,69.12,0,0,1-6.81,5.76,68.2,68.2,0,0,1-7.45,4.83c2.44-1.67,4.85-3.38,7.1-5.27a66.72,66.72,0,0,0,6.41-6.05,64.38,64.38,0,0,0,5.59-6.77,44.76,44.76,0,0,0,4.43-7.47l.08-.18.17-.14c6.85-5.63,13.64-11.43,19.22-18.24A38.09,38.09,0,0,0,387.72,381a14.2,14.2,0,0,0,.69-3,6.57,6.57,0,0,0-.15-2.89,5.06,5.06,0,0,0-4.06-3.43,5.55,5.55,0,0,0-1.41,0c-.49.05-1.06.19-1.58.28a31.4,31.4,0,0,0-3.2.69l-3.16.9-3.09,1.14a87.7,87.7,0,0,0-11.94,5.72A156.39,156.39,0,0,0,338.06,395.69Z" fill="#f7a48b"/><path d="M404.56,505.79,384,511.29a38.38,38.38,0,0,1-10,1.15c-22.62-.49-16.44-12-16.44-12C338.52,482.83,359,473.3,359,473.3c-28.67-12.57,32-51.16,51.07-62.56" fill="#f9b499"/><path d="M404.56,505.79l-13.44,3.95c-4.47,1.23-8.93,2.9-13.71,3.2a49.34,49.34,0,0,1-7.09,0c-1.18-.1-2.36-.28-3.54-.41a33.15,33.15,0,0,1-3.51-.84,10.91,10.91,0,0,1-6.18-4.07,7.12,7.12,0,0,1-1.17-3.76,8.62,8.62,0,0,1,.85-3.83l.19,1.1-3-3.07c-.92-1.11-1.8-2.28-2.65-3.45a17.12,17.12,0,0,1-2.8-8.41,12.85,12.85,0,0,1,3.15-8.35,22.22,22.22,0,0,1,6.92-5.48l0,1.92c-.91-.48-1.84-.9-2.73-1.43a15,15,0,0,1-2.46-2,9.28,9.28,0,0,1-2.86-5.73,12.6,12.6,0,0,1,1-6.21,20,20,0,0,1,1.32-2.76,23,23,0,0,1,1.59-2.57,62.58,62.58,0,0,1,7.75-9,112.77,112.77,0,0,1,8.82-7.84c6.12-4.93,12.51-9.47,19-13.81s13.23-8.37,20.06-12.18c-6.57,4.23-13.11,8.52-19.46,13.06S378,433,372.06,438s-11.71,10.35-16,16.67a22.43,22.43,0,0,0-1.47,2.43,17.64,17.64,0,0,0-1.19,2.53,10.59,10.59,0,0,0-.81,5.24c.34,3.51,3.5,6,6.86,7.46l2.05.91-2,1a20.29,20.29,0,0,0-6.23,4.86,10.86,10.86,0,0,0-2.75,7.06,15.17,15.17,0,0,0,2.42,7.39c.79,1.09,1.6,2.19,2.45,3.24l2.86,3,.48.5-.29.6a6.09,6.09,0,0,0,.14,5.8,9.33,9.33,0,0,0,5.23,3.54,32.09,32.09,0,0,0,3.27.88c1.14.15,2.27.35,3.41.48a48.12,48.12,0,0,0,6.89.2c4.6-.2,9.07-1.61,13.62-2.68Z" fill="#f7a48b"/><path d="M363.79,500.92c3.57-2.55,7.21-5,10.86-7.46s7.33-4.82,11-7.24,7.4-4.73,11.13-7.05l5.61-3.45c1.89-1.12,3.76-2.27,5.66-3.37-1.78,1.29-3.6,2.52-5.4,3.78l-5.45,3.69c-3.65,2.45-7.34,4.82-11,7.24s-7.4,4.73-11.13,7S367.59,498.72,363.79,500.92Z" fill="#f7a48b"/><path d="M359,473.31c3.73-2.68,7.53-5.26,11.34-7.83s7.65-5.06,11.48-7.59,7.72-5,11.61-7.41l5.85-3.63c2-1.18,3.92-2.39,5.91-3.54-1.87,1.34-3.76,2.63-5.64,3.95l-5.7,3.87c-3.81,2.57-7.66,5.06-11.49,7.59s-7.71,5-11.61,7.41S363,471,359,473.31Z" fill="#f7a48b"/><path d="M373.29,453.07a4.68,4.68,0,0,0-3.29-2.7,6.77,6.77,0,0,0-4.22.84,26.41,26.41,0,0,0-6.61,5.71c-1.63,2.33-2.8,5.22-2.37,8a6.68,6.68,0,0,0,1.8,3.66l.34.4.4.34.81.68c.58.4,1.21.75,1.82,1.13l-.48,0c4.63-2.95,9.34-5.78,14-8.67l0,0a5.3,5.3,0,0,0,.13-2.39,19.89,19.89,0,0,0-.52-2.41A36.54,36.54,0,0,0,373.29,453.07Zm0,0a39.88,39.88,0,0,1,1.84,4.61,18,18,0,0,1,.59,2.41,5.38,5.38,0,0,1-.06,2.52v0l0,0c-4.54,3.08-9,6.23-13.61,9.27l-.25.16-.23-.14c-.65-.4-1.32-.76-1.95-1.19l-.9-.74-.44-.37-.38-.44a7.53,7.53,0,0,1-2-4.18,9.41,9.41,0,0,1,.59-4.56,14.63,14.63,0,0,1,2.25-3.93,26.69,26.69,0,0,1,7-5.49,7,7,0,0,1,4.31-.72A4.72,4.72,0,0,1,373.29,453.07Z" fill="#f7a48b"/><path d="M377.76,491.9a28.24,28.24,0,0,0-2.34-6.26,15.16,15.16,0,0,0-4.06-5.13,9.84,9.84,0,0,0-1.38-.85,8.31,8.31,0,0,0-1.48-.56,6.24,6.24,0,0,0-3.12.12,12.84,12.84,0,0,0-2.92,1.41,20.13,20.13,0,0,0-2.66,1.91,11.21,11.21,0,0,0-3.62,5.22,9.22,9.22,0,0,0,.52,6.24,8,8,0,0,0,4.58,4.17,10.68,10.68,0,0,0,6.4-.11l-.08,0c1.66-1,3.33-2.06,5-3.08Zm0,0-4.85,3.35c-1.63,1.13-3.3,2.25-5,3.36l0,0-.05,0A11.39,11.39,0,0,1,361,499a8.87,8.87,0,0,1-5.15-4.59,10.11,10.11,0,0,1-.65-6.89,12.08,12.08,0,0,1,4-5.66,21.52,21.52,0,0,1,2.81-2,14,14,0,0,1,3.15-1.47,6.71,6.71,0,0,1,3.53-.05,9.37,9.37,0,0,1,3.09,1.64,14.91,14.91,0,0,1,4,5.48A26.23,26.23,0,0,1,377.76,491.9Z" fill="#f7a48b"/><path d="M377.76,491.9a30.31,30.31,0,0,1,3,5.46,23,23,0,0,1,1.67,6,13.22,13.22,0,0,1-.57,6.29,4.52,4.52,0,0,1-2.17,2.52,4.82,4.82,0,0,1-1.62.53,6.91,6.91,0,0,1-1.64,0,34.16,34.16,0,0,1-6.22-.84,11,11,0,0,1-5.49-3.24,10.26,10.26,0,0,1-.95-1.32,5.1,5.1,0,0,1-.7-1.51,5.71,5.71,0,0,1,.08-3.3,6.53,6.53,0,0,1,1.85-2.69,11.88,11.88,0,0,1,2.66-1.75h0C371,495.94,374.47,493.9,377.76,491.9Zm0,0c-3.37,2.31-6.58,4.57-9.82,6.72h0a7.87,7.87,0,0,0-4,4.13,4.77,4.77,0,0,0,0,2.8,4.12,4.12,0,0,0,.61,1.27,9.31,9.31,0,0,0,.87,1.19,10,10,0,0,0,5.06,2.88,32.47,32.47,0,0,0,6,.88,5.94,5.94,0,0,0,1.45,0,3.85,3.85,0,0,0,1.32-.42,3.67,3.67,0,0,0,1.79-2,13,13,0,0,0,.72-5.91,25,25,0,0,0-1.39-5.94A34.71,34.71,0,0,0,377.76,491.9Z" fill="#f7a48b"/><path d="M410,410.33v0l-20.49,12.92C371.91,406.62,400,380,400,380" fill="#f9b499" stroke="#f7a48b" stroke-miterlimit="10"/><path d="M393.58,410.45s-2.2,6.78,4.2,7.4c0,0,14.56-5.5,10.27-18.94C408.05,398.91,403.36,390.62,393.58,410.45Z" fill="none" stroke="#f7a48b" stroke-miterlimit="10"/><path d="M476.31,277.31c19.46,17.16,56.22-18,56.22-18,5.5,12.22,20.78,21.39,20.78,21.39l11.61,38.5c5.5,12.22,36.06,16.5,36.06,16.5,28.72,35.45,55.61,36.06,55.61,36.06l28.18,31.11a4.06,4.06,0,0,0,2.89,1.36c31.69.91,50.57-28.27,56-38a4.09,4.09,0,0,0-1-5.18l-46.26-37L671.89,241a53.46,53.46,0,0,0-4.3-10.55c-12.58-23.07-28.72-19.94-28.72-19.94l-33.61-28.12c-19.56-21.39-34.84-9.78-34.84-9.78l-66.23,43.76a6.36,6.36,0,0,0-2.94,6.2c1,6.06,10.5,6.88,10.5,6.88l-14.66,20.78L476.22,271A4.34,4.34,0,0,0,476.31,277.31Zm90.12-66.85,13.45-7.92,4.09,7.92Z" fill="#f9b499"/><path d="M681,362c-2.06,1-4,2.05-5.95,3s-4,1.87-6,2.67-4.06,1.53-6.14,2.21-4.22,1.2-6.39,1.89a25.26,25.26,0,0,0,6.78-.27A31.34,31.34,0,0,0,681,362Z" fill="#f7a48b"/><path d="M586.31,212.29c1.44,1.72,2.94,3.37,4.42,5.06s3,3.28,4.54,4.93q4.53,4.93,9.25,9.69l-.13-1.31a99.28,99.28,0,0,0-8.4,15.72,78.57,78.57,0,0,0-2.88,8.45,38.59,38.59,0,0,0-1.3,8.8,67.06,67.06,0,0,1,5.82-16.52c1.23-2.65,2.64-5.21,4-7.78s2.91-5.08,4.46-7.52l.46-.73-.59-.58q-4.75-4.71-9.68-9.26c-1.65-1.51-3.26-3.06-4.94-4.54S588,213.72,586.31,212.29Z" fill="#f7a48b"/><path d="M601,238.4a111.36,111.36,0,0,0-19.09,4.7c-3.1,1.08-6.18,2.24-9.18,3.63a30.52,30.52,0,0,0-8.36,5.27,61.09,61.09,0,0,1,9-3.73l9.23-3.15C588.73,243,594.9,240.94,601,238.4Z" fill="#f7a48b"/><path d="M605.26,249c-.14,5-.2,9.82-.26,14.72,0,2.44,0,4.88,0,7.34s0,4.91.27,7.4a59.11,59.11,0,0,0,1.87-14.72,63.53,63.53,0,0,0-.37-7.43A35.81,35.81,0,0,0,605.26,249Z" fill="#f7a48b"/><path d="M638.87,210.46a34.36,34.36,0,0,1,6.17,5.73,48,48,0,0,1,4.81,6.77,64.38,64.38,0,0,1,3.71,7.49c.57,1.28,1,2.62,1.57,3.93s.9,2.68,1.46,4c-.08-1.43-.28-2.86-.45-4.3s-.56-2.84-1-4.21a36.84,36.84,0,0,0-3.45-8,31.61,31.61,0,0,0-5.45-6.84A20.23,20.23,0,0,0,638.87,210.46Z" fill="#f7a48b"/><line x1="497.09" y1="250.18" x2="476.22" y2="271.01" fill="none" stroke="#f7a48b" stroke-miterlimit="10"/><path d="M465.56,265.5,445.86,274l-17.29,3.32a.75.75,0,0,1-.55-1.38l10.4-6.13,22.89-12.21Z" fill="#f1f2f2"/><path d="M693.48,135.73,466.32,269.34a3.19,3.19,0,0,1-4.42-1.24l-4.86-9a3.2,3.2,0,0,1,1.29-4.32l232-124.71a3.26,3.26,0,0,1,4.32,1.17h0A3.26,3.26,0,0,1,693.48,135.73Z" fill="#2f2e41"/><path d="M623,286.85s-33.13-14.53-53.47-29.42a14.89,14.89,0,0,1-2.67-2.53c-5.47-6.55-29.32-33.87-44.7-31,0,0-10.39,1.22,0,18.34l10.39,17.11s1.84,9.16,20.78,21.39c0,0,18.61,13.08,39.56,43.51" fill="#f9b499" stroke="#f7a48b" stroke-miterlimit="10"/><path d="M528.07,252s10.86-3.73,5.07-15.88l-7.87-12.4" fill="none" stroke="#f7a48b" stroke-miterlimit="10"/></svg>